<svg id="c6ec0701-fe1e-4243-9834-e5249960c752" data-name="Layer 1" xmlns="http://www.w3.org/2000/svg" xmlns:xlink="http://www.w3.org/1999/xlink" viewBox="0 0 115.32 115.15"><defs><style>.\33 06700d2-63dc-464d-892b-5550e8ea208f{fill:none;}.f25525a6-6996-45d9-a8ad-9ee876d7a527{fill:#fff;}.\37 a397219-8a50-47da-9f9c-0a48a6b9dbbf{clip-path:url(#e6de08b2-9c06-4c21-84c4-3c62d4908faf);}.f532a7f2-6745-44fd-aa49-8c0390c5ad0b{fill:#666;}.\38 4cc80a3-1d71-428a-94b8-de00bbed620f{fill:#2e3192;}.a46f8b42-955e-4117-913b-108a7e57bfd5{fill:#c1272d;}.\31 d0742c3-9110-40e6-b317-df32d9c15361{fill:#333;}</style><clipPath id="e6de08b2-9c06-4c21-84c4-3c62d4908faf"><circle class="306700d2-63dc-464d-892b-5550e8ea208f" cx="57.75" cy="58.57" r="51.43"/></clipPath></defs><title>tlverse-logo</title><circle class="f25525a6-6996-45d9-a8ad-9ee876d7a527" cx="57.75" cy="58.57" r="51.43"/><g class="7a397219-8a50-47da-9f9c-0a48a6b9dbbf"><path class="f532a7f2-6745-44fd-aa49-8c0390c5ad0b" d="M80.93,39.17a2.69,2.69,0,1,1,2.7-2.69A2.7,2.7,0,0,1,80.93,39.17Z"/><path class="f532a7f2-6745-44fd-aa49-8c0390c5ad0b" d="M86.21,54A2.69,2.69,0,1,1,88.9,51.3,2.7,2.7,0,0,1,86.21,54Z"/><path class="f532a7f2-6745-44fd-aa49-8c0390c5ad0b" d="M45.62,65.34a2.69,2.69,0,1,1,2.69-2.69A2.68,2.68,0,0,1,45.62,65.34Z"/><path class="f532a7f2-6745-44fd-aa49-8c0390c5ad0b" d="M57.79,74.47a2.7,2.7,0,1,1,2.69-2.69A2.7,2.7,0,0,1,57.79,74.47Z"/><path class="f532a7f2-6745-44fd-aa49-8c0390c5ad0b" d="M83.94,31.55a2.7,2.7,0,1,1,2.69-2.69A2.69,2.69,0,0,1,83.94,31.55Z"/><path class="f532a7f2-6745-44fd-aa49-8c0390c5ad0b" d="M69,51.59a2.69,2.69,0,1,1,2.69-2.69A2.69,2.69,0,0,1,69,51.59Z"/><path class="f532a7f2-6745-44fd-aa49-8c0390c5ad0b" d="M27.73,60.27a2.69,2.69,0,1,1,2.7-2.69A2.69,2.69,0,0,1,27.73,60.27Z"/><path class="f532a7f2-6745-44fd-aa49-8c0390c5ad0b" d="M47.73,49.75a2.7,2.7,0,1,1,2.69-2.69A2.69,2.69,0,0,1,47.73,49.75Z"/><path class="f532a7f2-6745-44fd-aa49-8c0390c5ad0b" d="M32.47,75.53a2.69,2.69,0,1,1,2.69-2.69A2.69,2.69,0,0,1,32.47,75.53Z"/><path class="f532a7f2-6745-44fd-aa49-8c0390c5ad0b" d="M56.08,51.14a2.7,2.7,0,1,1,2.7-2.69A2.7,2.7,0,0,1,56.08,51.14Z"/><path class="f532a7f2-6745-44fd-aa49-8c0390c5ad0b" d="M49.83,70.74A2.7,2.7,0,1,1,52.52,68,2.69,2.69,0,0,1,49.83,70.74Z"/><path class="f532a7f2-6745-44fd-aa49-8c0390c5ad0b" d="M18.39,63.3a2.7,2.7,0,1,1,2.7-2.69A2.7,2.7,0,0,1,18.39,63.3Z"/><path class="f532a7f2-6745-44fd-aa49-8c0390c5ad0b" d="M14.58,76.58a2.69,2.69,0,1,1,2.69-2.69A2.68,2.68,0,0,1,14.58,76.58Z"/><path class="f532a7f2-6745-44fd-aa49-8c0390c5ad0b" d="M22.47,87.9a2.7,2.7,0,1,1,2.69-2.69A2.7,2.7,0,0,1,22.47,87.9Z"/><path class="f532a7f2-6745-44fd-aa49-8c0390c5ad0b" d="M90.74,44.49a2.7,2.7,0,1,1,2.7-2.69A2.7,2.7,0,0,1,90.74,44.49Z"/><path class="f532a7f2-6745-44fd-aa49-8c0390c5ad0b" d="M97.85,38.17a2.69,2.69,0,1,1,2.69-2.69A2.68,2.68,0,0,1,97.85,38.17Z"/><path class="f532a7f2-6745-44fd-aa49-8c0390c5ad0b" d="M94,52.91a2.7,2.7,0,1,1,2.7-2.7A2.7,2.7,0,0,1,94,52.91Z"/><path class="84cc80a3-1d71-428a-94b8-de00bbed620f" d="M14.87,86.19l-2.24-1.68a.59.59,0,0,1-.11-.81A175.29,175.29,0,0,1,25.08,69.18C35,58.93,43.28,53.47,49.58,53a9.71,9.71,0,0,1,7.81,2.68c1.48,1.43,3.26,1.79,5.61,1.14,5-1.38,11.86-7.37,19.34-16.84,6.43-8.14,10.71-15.53,11-16.75,0,0,0,0,.36-1.25s3,2.75,3,3.16c0,.82,0,.48-1.88,3.71-1.66,2.8-3.86,6.11-6.2,9.32C84.92,43.27,77.53,52.64,70.15,57.6A18.8,18.8,0,0,1,62.22,61a8.87,8.87,0,0,1-7.57-2.48A5.78,5.78,0,0,0,49.9,56.9c-5.24.42-12.83,5.61-22,15A175.55,175.55,0,0,0,15.67,86.08.57.57,0,0,1,14.87,86.19Z"/><path class="a46f8b42-955e-4117-913b-108a7e57bfd5" d="M64.32,69.36c-6.4,0-9.62-2.91-11.23-5.64-.62-1-2.73-3.5-10-8.16-4.24-2.74-8.19-4.9-8.23-4.92l1.89-3.47c1.68.92,16.49,9.1,19.7,14.55C58.43,65,62.42,66.11,68.38,65a40.8,40.8,0,0,0,9.22-3l1.74,3.54a43.62,43.62,0,0,1-10.17,3.34A26.9,26.9,0,0,1,64.32,69.36Z"/><rect class="1d0742c3-9110-40e6-b317-df32d9c15361" x="89.8" y="62.16" width="8.71" height="65.29" transform="translate(-39.46 94.35) rotate(-45)"/><path d="M75,40.22a25.16,25.16,0,1,1-35.59,0A25.14,25.14,0,0,1,75,40.22ZM44.22,45.06a18.31,18.31,0,1,0,25.89,0A18.31,18.31,0,0,0,44.22,45.06Z"/><rect x="88.09" y="73.9" width="13.03" height="42.75" rx="5" ry="5" transform="translate(-39.66 94.8) rotate(-45)"/></g><path d="M57.75,111.32A52.76,52.76,0,0,1,37.22,10a52.76,52.76,0,0,1,41.06,97.21A52.41,52.41,0,0,1,57.75,111.32Zm0-102.86a49.91,49.91,0,1,0,19.51,3.93A49.86,49.86,0,0,0,57.75,8.46Z"/></svg>