<svg id="60c27d49-7dfd-40f8-9ac1-9f6c45841d4e" data-name="Layer 1" xmlns="http://www.w3.org/2000/svg" viewBox="0 0 200 200"><defs><style>.af352aad-9cad-42b9-8211-b2744a9ca387{fill:#1b1464;}.\30 0322ff4-048e-4eea-9742-40f03a746ea1{fill:#f7931e;}</style></defs><title>vdl-logo-transparent</title><path class="af352aad-9cad-42b9-8211-b2744a9ca387" d="M177.54,76.73A71.75,71.75,0,1,1,105.79,5,71.75,71.75,0,0,1,177.54,76.73Zm-71.75-57.4a57.4,57.4,0,1,0,57.4,57.4A57.4,57.4,0,0,0,105.79,19.33Z"/><path class="af352aad-9cad-42b9-8211-b2744a9ca387" d="M148.84,76.73a43.05,43.05,0,1,1-43-43.05A43.05,43.05,0,0,1,148.84,76.73Zm-43-28.7a28.7,28.7,0,1,0,28.7,28.7A28.7,28.7,0,0,0,105.79,48Z"/><circle class="af352aad-9cad-42b9-8211-b2744a9ca387" cx="105.79" cy="76.73" r="14.35"/><rect class="00322ff4-048e-4eea-9742-40f03a746ea1" x="146.08" y="72.87" width="7.8" height="93.17" transform="translate(-40.54 141.03) rotate(-45)"/><polygon class="00322ff4-048e-4eea-9742-40f03a746ea1" points="171.68 142.66 169 152.66 170.72 154.38 173.4 144.37 175.12 146.09 172.43 156.09 174.15 157.81 176.83 147.81 178.55 149.52 175.87 159.53 177.58 161.24 180.26 151.24 182.02 152.99 183.51 151.5 181.76 149.74 191.76 147.06 190.05 145.35 180.04 148.03 178.32 146.31 188.33 143.63 186.61 141.91 176.61 144.59 174.89 142.88 184.9 140.2 183.18 138.48 173.18 141.16 171.68 142.66"/><path class="00322ff4-048e-4eea-9742-40f03a746ea1" d="M119.74,89.22,117.61,98l-.31-.06L111.46,86c-2.41-3.76-2.53-6.25-4.94-10,3.77,2.41,5.75,3,9.52,5.44l12.38,5.35.09.27Z"/><path class="00322ff4-048e-4eea-9742-40f03a746ea1" d="M41.9,179.43c0-.09,0-.14-.5-.65-3.68-3.71-4.62-9.28-4.62-13.79,0-5.12,1.12-10.25,4.74-13.93.38-.36.38-.42.38-.51l-.29-.29c-.29,0-3,2-4.69,5.75A22.75,22.75,0,0,0,37,174.19c1.77,3.62,4.31,5.54,4.6,5.54Z"/><path class="00322ff4-048e-4eea-9742-40f03a746ea1" d="M22.8,153.59c0-1.34,0-1.89,3.74-1.89h1.3v-1.22c-1.42.12-5,.12-6.65.12s-5.28,0-6.69-.12v1.22h1.29c3.74,0,3.74.51,3.74,1.89v17.47c-5.15-1.37-5.35-7.43-5.35-10,0-4.76-1.77-5.51-3.5-5.51H9.22c-.59,0-1,0-1,.43l.35.43c1.3.16,2.29.71,2.32,5.36a11.89,11.89,0,0,0,2,6.65,9.46,9.46,0,0,0,6.61,3.62v2.2c0,1.34,0,1.89-3.74,1.89H14.5v1.22c1.41-.12,5-.12,6.65-.12s5.27,0,6.69.12v-1.22h-1.3c-3.74,0-3.74-.51-3.74-1.89v-2.2a9.74,9.74,0,0,0,6.77-3.58,12.38,12.38,0,0,0,2.08-7.64c0-.63,0-4.13,2.17-4.41l.51-.43c0-.43-.31-.43-.94-.43h-1.5c-1.53,0-3.46.27-3.5,6,0,4.33-1.34,8.5-5.59,9.52Z"/><path class="00322ff4-048e-4eea-9742-40f03a746ea1" d="M50.56,154.27c.26-1,.32-1.12,1.59-1.12H55c2.44,0,4,.79,4,2.83,0,1.15-.58,3.68-1.73,4.74a6.59,6.59,0,0,1-4.54,1.56H48.55Zm-2.12,8.78h5c4.19,0,8.29-3.07,8.29-6.37,0-2.27-1.95-4.45-5.81-4.45H46.37c-.56,0-.88,0-.88.56,0,.36.26.36.85.36.39,0,.92,0,1.27.06s.65.14.65.47a2.59,2.59,0,0,1-.12.56l-4,15.82c-.29,1.15-.35,1.39-2.68,1.39-.5,0-.82,0-.82.56,0,.35.35.35.44.35.82,0,2.91-.09,3.74-.09l1.89,0c.64,0,1.29.06,1.91.06.21,0,.59,0,.59-.59,0-.32-.26-.32-.82-.32-1.09,0-1.92,0-1.92-.53l.09-.5Z"/><path class="00322ff4-048e-4eea-9742-40f03a746ea1" d="M60.83,178.51a8.23,8.23,0,0,0-.2.85.66.66,0,0,0,.7.66,1,1,0,0,0,.8-.45,8.74,8.74,0,0,0,.37-1.28c.11-.39.33-1.34.46-1.86s.24-.91.35-1.38a4.22,4.22,0,0,1,.86-1.86,3.85,3.85,0,0,1,3.1-1.89c1.19,0,1.21,1,1.21,1.44a16.54,16.54,0,0,1-1.21,4.39,2.75,2.75,0,0,0-.31,1.12,1.81,1.81,0,0,0,2,1.77c2.06,0,3-2.85,3-3.16s-.27-.26-.33-.26c-.29,0-.31.12-.4.35-.47,1.65-1.36,2.49-2.18,2.49-.43,0-.52-.29-.52-.72a4.21,4.21,0,0,1,.48-1.67,15.48,15.48,0,0,0,1.09-4c0-2-1.59-2.35-2.68-2.35a4.39,4.39,0,0,0-3.49,1.88,2.09,2.09,0,0,0-2.2-1.88A1.88,1.88,0,0,0,60,171.83a7.17,7.17,0,0,0-.74,2c0,.27.28.27.35.27.28,0,.31-.06.45-.62.31-1.21.7-2.22,1.51-2.22.53,0,.68.45.68,1A9.56,9.56,0,0,1,62,174c-.15.56-.35,1.4-.46,1.85Z"/><path class="00322ff4-048e-4eea-9742-40f03a746ea1" d="M82.58,165a21.5,21.5,0,0,0-2-9.19c-1.77-3.62-4.3-5.54-4.59-5.54l-.3.29c0,.09,0,.15.56.68,2.89,2.92,4.57,7.61,4.57,13.76,0,5-1.09,10.23-4.75,13.94-.38.36-.38.41-.38.5l.3.3c.29,0,2.94-2,4.68-5.75A21.46,21.46,0,0,0,82.58,165Z"/><path class="00322ff4-048e-4eea-9742-40f03a746ea1" d="M149.9,194.43c0-.09,0-.14-.5-.65-3.68-3.71-4.62-9.28-4.62-13.79,0-5.12,1.12-10.25,4.74-13.93.38-.36.38-.42.38-.51l-.29-.29c-.29,0-3,2-4.69,5.75a22.75,22.75,0,0,0,.09,18.18c1.77,3.62,4.31,5.54,4.6,5.54Z"/><path class="00322ff4-048e-4eea-9742-40f03a746ea1" d="M130.8,168.59c0-1.34,0-1.89,3.74-1.89h1.3v-1.22c-1.42.12-5,.12-6.65.12s-5.28,0-6.69-.12v1.22h1.29c3.74,0,3.74.51,3.74,1.89v17.47c-5.15-1.37-5.35-7.43-5.35-10,0-4.76-1.77-5.51-3.5-5.51h-1.46c-.59,0-1,0-1,.43l.35.43c1.3.16,2.29.71,2.32,5.36a11.89,11.89,0,0,0,2,6.65,9.46,9.46,0,0,0,6.61,3.62v2.2c0,1.34,0,1.89-3.74,1.89H122.5v1.22c1.41-.12,5-.12,6.65-.12s5.27,0,6.69.12v-1.22h-1.3c-3.74,0-3.74-.51-3.74-1.89v-2.2a9.74,9.74,0,0,0,6.77-3.58,12.38,12.38,0,0,0,2.08-7.64c0-.63,0-4.13,2.17-4.41l.51-.43c0-.43-.31-.43-.94-.43h-1.5c-1.53,0-3.46.27-3.5,6,0,4.33-1.34,8.5-5.59,9.52Z"/><path class="00322ff4-048e-4eea-9742-40f03a746ea1" d="M158.56,169.27c.26-1,.32-1.12,1.59-1.12H163c2.44,0,4,.79,4,2.83,0,1.15-.58,3.68-1.73,4.74a6.59,6.59,0,0,1-4.54,1.56h-4.16Zm-2.12,8.78h5c4.19,0,8.29-3.07,8.29-6.37,0-2.27-1.95-4.45-5.81-4.45h-9.55c-.56,0-.88,0-.88.56,0,.36.26.36.85.36.39,0,.92,0,1.27.06s.65.14.65.47a2.59,2.59,0,0,1-.12.56l-3.95,15.82c-.29,1.15-.35,1.39-2.68,1.39-.5,0-.82,0-.82.56,0,.35.35.35.44.35.82,0,2.91-.09,3.74-.09l1.89,0c.64,0,1.29.06,1.91.06.21,0,.59,0,.59-.59,0-.32-.26-.32-.82-.32-1.09,0-1.92,0-1.92-.53l.09-.5Z"/><path class="00322ff4-048e-4eea-9742-40f03a746ea1" d="M177.24,171.58c1.69-.74,2.45-1,3-1.28s.57-.25.57-.64a.65.65,0,0,0-.64-.66l-.43.19-2.8,1.87.31-3.05c0-.37,0-.89-.62-.89a.62.62,0,0,0-.64.62l.1,1c0,.35.19,1.84.23,2.31l-2.79-1.87-.45-.19a.65.65,0,0,0-.64.66.59.59,0,0,0,.43.6l3.12,1.3c-1.69.74-2.46,1-3,1.28s-.58.24-.58.64a.65.65,0,0,0,.64.66l.43-.19,2.81-1.88-.33,3.32a.64.64,0,0,0,1.28,0l-.11-1c0-.35-.18-1.83-.22-2.31l2.47,1.65c.54.42.58.42.76.42a.65.65,0,0,0,.64-.66.57.57,0,0,0-.43-.6Z"/><path class="00322ff4-048e-4eea-9742-40f03a746ea1" d="M168.83,193.51a8.23,8.23,0,0,0-.2.85.66.66,0,0,0,.7.66,1,1,0,0,0,.8-.45,8.74,8.74,0,0,0,.37-1.28c.11-.39.33-1.34.46-1.86s.24-.91.35-1.38a4.22,4.22,0,0,1,.86-1.86,3.85,3.85,0,0,1,3.1-1.89c1.19,0,1.21,1,1.21,1.44a16.54,16.54,0,0,1-1.21,4.39,2.75,2.75,0,0,0-.31,1.12,1.81,1.81,0,0,0,2,1.77c2.06,0,3-2.85,3-3.16s-.27-.26-.33-.26c-.29,0-.31.12-.4.35-.47,1.65-1.36,2.49-2.18,2.49-.43,0-.52-.29-.52-.72a4.21,4.21,0,0,1,.48-1.67,15.48,15.48,0,0,0,1.09-4c0-2-1.59-2.35-2.68-2.35a4.39,4.39,0,0,0-3.49,1.88,2.09,2.09,0,0,0-2.2-1.88,1.88,1.88,0,0,0-1.63,1.11,7.17,7.17,0,0,0-.74,2c0,.27.28.27.35.27.28,0,.31-.06.45-.62.31-1.21.7-2.22,1.51-2.22.53,0,.68.45.68,1A9.56,9.56,0,0,1,170,189c-.15.56-.35,1.4-.46,1.85Z"/><path class="00322ff4-048e-4eea-9742-40f03a746ea1" d="M190.58,180a21.5,21.5,0,0,0-2-9.19c-1.77-3.62-4.3-5.54-4.59-5.54l-.3.29c0,.09,0,.15.56.68,2.89,2.92,4.57,7.61,4.57,13.76,0,5-1.09,10.23-4.75,13.94-.38.36-.38.41-.38.5l.3.3c.29,0,2.94-2,4.68-5.75A21.46,21.46,0,0,0,190.58,180Z"/><rect class="00322ff4-048e-4eea-9742-40f03a746ea1" x="5.64" y="94.56" width="93.17" height="7.8" transform="translate(-54.32 65.76) rotate(-45)"/><polygon class="00322ff4-048e-4eea-9742-40f03a746ea1" points="29.02 120.16 19.01 117.48 17.3 119.2 27.3 121.88 25.59 123.59 15.58 120.91 13.87 122.63 23.87 125.31 22.15 127.03 12.15 124.35 10.43 126.06 20.44 128.74 18.68 130.5 20.18 131.99 21.93 130.24 24.61 140.24 26.33 138.53 23.65 128.52 25.36 126.81 28.04 136.81 29.76 135.09 27.08 125.09 28.8 123.37 31.48 133.38 33.19 131.66 30.51 121.66 29.02 120.16"/><path class="00322ff4-048e-4eea-9742-40f03a746ea1" d="M82.45,68.22l-8.74-2.13.07-.31,11.87-5.84c3.77-2.41,6.25-2.53,10-4.94-2.41,3.77-3,5.75-5.44,9.52L84.89,76.9l-.28.09Z"/></svg>